# xmcd
#
# Track frame offsets: 
#        150
#        19542
#        34995
#        51985
#        75250
#        99637
#        117722
#        138602
#        153920
#        173105
#
# Disc length: 2708 seconds
#
# Revision: 3
# Processed by: cddbd v1.5PL3 Copyright (c) Steve Scherf et al.
# Submitted via: ExactAudioCopy v0.90b4
#
DISCID=7e0a920a
DTITLE=The Charlie Daniels Band - Steel Witness
DYEAR=1996
DGENRE=Christian
TTITLE0=It's Happening Now
TTITLE1=New Pharisees
TTITLE2=Somebody Was Prayin' For Me
TTITLE3=Payback Time
TTITLE4=He's Not Here
TTITLE5=Whose Side Are You On
TTITLE6=Tribulation
TTITLE7=Jesus
TTITLE8=Heart Of My Heart
TTITLE9=A Day In The Life
EXTD=The Sparrow Corporation (P) 1996 YEAR: 1996
EXTT0=
EXTT1=
EXTT2=
EXTT3=
EXTT4=
EXTT5=
EXTT6=
EXTT7=
EXTT8=
EXTT9=
PLAYORDER=
